<svg xmlns="http://www.w3.org/2000/svg" viewBox="0 0 48 48">
  <defs>
    <linearGradient id="folderGradient" x1="0%" y1="0%" x2="0%" y2="100%">
      <stop offset="0%" style="stop-color:#7B9FFF"/>
      <stop offset="100%" style="stop-color:#6C8CFF"/>
    </linearGradient>
    <linearGradient id="folderFrontGradient" x1="0%" y1="0%" x2="0%" y2="100%">
      <stop offset="0%" style="stop-color:#8EADFF"/>
      <stop offset="100%" style="stop-color:#6C8CFF"/>
    </linearGradient>
  </defs>
  
  <!-- Back of folder -->
  <path d="M4,10 L4,40 C4,42 5,43 7,43 L41,43 C43,43 44,42 44,40 L44,14 C44,12 43,11 41,11 L22,11 L18,6 C17,5 16,5 15,5 L7,5 C5,5 4,6 4,8 Z" fill="url(#folderGradient)"/>
  
  <!-- Tab -->
  <path d="M4,10 L18,10 L22,14 L4,14 Z" fill="#5A7AE6"/>
  
  <!-- Front of folder -->
  <path d="M2,16 L2,40 C2,42 3,43 5,43 L43,43 C45,43 46,42 46,40 L46,18 C46,16 45,15 43,15 L5,15 C3,15 2,16 2,16 Z" fill="url(#folderFrontGradient)" opacity="0.95"/>
  
  <!-- Highlight line -->
  <path d="M5,17 L43,17" stroke="#FFFFFF" stroke-width="1" opacity="0.3"/>
</svg>
