<svg xmlns="http://www.w3.org/2000/svg" viewBox="0 0 48 48">
  <defs>
    <linearGradient id="dolphinGradient" x1="0%" y1="0%" x2="0%" y2="100%">
      <stop offset="0%" style="stop-color:#8EADFF"/>
      <stop offset="100%" style="stop-color:#6C8CFF"/>
    </linearGradient>
    <linearGradient id="folderSmallGradient" x1="0%" y1="0%" x2="0%" y2="100%">
      <stop offset="0%" style="stop-color:#7AE7C7"/>
      <stop offset="100%" style="stop-color:#5BC4A8"/>
    </linearGradient>
  </defs>
  
  <!-- Window background -->
  <rect x="4" y="8" width="40" height="36" rx="4" fill="#0F1720"/>
  
  <!-- Title bar -->
  <rect x="4" y="8" width="40" height="8" rx="4" fill="url(#dolphinGradient)"/>
  <rect x="4" y="12" width="40" height="4" fill="url(#dolphinGradient)"/>
  
  <!-- Window buttons -->
  <circle cx="10" cy="12" r="2" fill="#DA4453"/>
  <circle cx="16" cy="12" r="2" fill="#F67400"/>
  <circle cx="22" cy="12" r="2" fill="#27AE60"/>
  
  <!-- Sidebar -->
  <rect x="4" y="16" width="12" height="28" fill="#101317"/>
  
  <!-- Folder icons in sidebar -->
  <rect x="6" y="20" width="8" height="6" rx="1" fill="url(#folderSmallGradient)" opacity="0.8"/>
  <rect x="6" y="28" width="8" height="6" rx="1" fill="url(#folderSmallGradient)" opacity="0.6"/>
  <rect x="6" y="36" width="8" height="6" rx="1" fill="url(#folderSmallGradient)" opacity="0.4"/>
  
  <!-- Content area -->
  <rect x="18" y="20" width="6" height="6" rx="1" fill="url(#folderSmallGradient)"/>
  <rect x="26" y="20" width="6" height="6" rx="1" fill="url(#folderSmallGradient)"/>
  <rect x="34" y="20" width="6" height="6" rx="1" fill="url(#folderSmallGradient)"/>
  <rect x="18" y="30" width="6" height="6" rx="1" fill="#6C8CFF" opacity="0.5"/>
  <rect x="26" y="30" width="6" height="6" rx="1" fill="#6C8CFF" opacity="0.5"/>
</svg>
