<svg xmlns="http://www.w3.org/2000/svg" viewBox="0 0 3840 2160">
  <defs>
    <!-- Deep space background -->
    <radialGradient id="spaceGradient" cx="50%" cy="50%" r="70%">
      <stop offset="0%" style="stop-color:#0F1720;stop-opacity:1"/>
      <stop offset="100%" style="stop-color:#050608;stop-opacity:1"/>
    </radialGradient>
    
    <!-- Nebula colors -->
    <radialGradient id="nebula1" cx="30%" cy="40%" r="40%">
      <stop offset="0%" style="stop-color:#6C8CFF;stop-opacity:0.2"/>
      <stop offset="50%" style="stop-color:#6C8CFF;stop-opacity:0.05"/>
      <stop offset="100%" style="stop-color:#6C8CFF;stop-opacity:0"/>
    </radialGradient>
    
    <radialGradient id="nebula2" cx="70%" cy="60%" r="35%">
      <stop offset="0%" style="stop-color:#7AE7C7;stop-opacity:0.15"/>
      <stop offset="50%" style="stop-color:#7AE7C7;stop-opacity:0.03"/>
      <stop offset="100%" style="stop-color:#7AE7C7;stop-opacity:0"/>
    </radialGradient>
    
    <radialGradient id="nebula3" cx="60%" cy="30%" r="25%">
      <stop offset="0%" style="stop-color:#9F7AEA;stop-opacity:0.1"/>
      <stop offset="100%" style="stop-color:#9F7AEA;stop-opacity:0"/>
    </radialGradient>
    
    <!-- Glow filter -->
    <filter id="starGlow" x="-200%" y="-200%" width="500%" height="500%">
      <feGaussianBlur in="SourceGraphic" stdDeviation="2"/>
    </filter>
    
    <filter id="nebulaBlur" x="-50%" y="-50%" width="200%" height="200%">
      <feGaussianBlur in="SourceGraphic" stdDeviation="100"/>
    </filter>
  </defs>
  
  <!-- Space background -->
  <rect width="3840" height="2160" fill="url(#spaceGradient)"/>
  
  <!-- Nebula clouds -->
  <rect width="3840" height="2160" fill="url(#nebula1)"/>
  <rect width="3840" height="2160" fill="url(#nebula2)"/>
  <rect width="3840" height="2160" fill="url(#nebula3)"/>
  
  <!-- Additional nebula shapes -->
  <ellipse cx="1200" cy="800" rx="800" ry="500" fill="#6C8CFF" opacity="0.06" filter="url(#nebulaBlur)"/>
  <ellipse cx="2800" cy="1400" rx="700" ry="400" fill="#7AE7C7" opacity="0.04" filter="url(#nebulaBlur)"/>
  <ellipse cx="1800" cy="1800" rx="500" ry="300" fill="#9F7AEA" opacity="0.03" filter="url(#nebulaBlur)"/>
  
  <!-- Star field - bright stars -->
  <g fill="#FFFFFF">
    <circle cx="150" cy="100" r="2" opacity="0.9" filter="url(#starGlow)"/>
    <circle cx="500" cy="300" r="2.5" opacity="0.95" filter="url(#starGlow)"/>
    <circle cx="900" cy="150" r="2" opacity="0.85" filter="url(#starGlow)"/>
    <circle cx="1300" cy="400" r="2.5" opacity="0.9" filter="url(#starGlow)"/>
    <circle cx="1700" cy="200" r="2" opacity="0.8" filter="url(#starGlow)"/>
    <circle cx="2100" cy="350" r="2.5" opacity="0.9" filter="url(#starGlow)"/>
    <circle cx="2500" cy="100" r="2" opacity="0.85" filter="url(#starGlow)"/>
    <circle cx="2900" cy="250" r="2.5" opacity="0.95" filter="url(#starGlow)"/>
    <circle cx="3300" cy="150" r="2" opacity="0.9" filter="url(#starGlow)"/>
    <circle cx="3700" cy="400" r="2.5" opacity="0.85" filter="url(#starGlow)"/>
    
    <circle cx="200" cy="600" r="2" opacity="0.85" filter="url(#starGlow)"/>
    <circle cx="600" cy="750" r="2.5" opacity="0.9" filter="url(#starGlow)"/>
    <circle cx="1000" cy="550" r="2" opacity="0.95" filter="url(#starGlow)"/>
    <circle cx="1400" cy="700" r="2.5" opacity="0.85" filter="url(#starGlow)"/>
    <circle cx="1800" cy="600" r="2" opacity="0.9" filter="url(#starGlow)"/>
    <circle cx="2200" cy="800" r="2.5" opacity="0.85" filter="url(#starGlow)"/>
    <circle cx="2600" cy="650" r="2" opacity="0.9" filter="url(#starGlow)"/>
    <circle cx="3000" cy="750" r="2.5" opacity="0.95" filter="url(#starGlow)"/>
    <circle cx="3400" cy="550" r="2" opacity="0.85" filter="url(#starGlow)"/>
    
    <circle cx="250" cy="1100" r="2.5" opacity="0.9" filter="url(#starGlow)"/>
    <circle cx="650" cy="950" r="2" opacity="0.85" filter="url(#starGlow)"/>
    <circle cx="1050" cy="1150" r="2.5" opacity="0.95" filter="url(#starGlow)"/>
    <circle cx="1450" cy="1000" r="2" opacity="0.9" filter="url(#starGlow)"/>
    <circle cx="1850" cy="1100" r="2.5" opacity="0.85" filter="url(#starGlow)"/>
    <circle cx="2250" cy="950" r="2" opacity="0.9" filter="url(#starGlow)"/>
    <circle cx="2650" cy="1150" r="2.5" opacity="0.95" filter="url(#starGlow)"/>
    <circle cx="3050" cy="1000" r="2" opacity="0.85" filter="url(#starGlow)"/>
    <circle cx="3450" cy="1100" r="2.5" opacity="0.9" filter="url(#starGlow)"/>
    <circle cx="3750" cy="950" r="2" opacity="0.95" filter="url(#starGlow)"/>
    
    <circle cx="100" cy="1500" r="2" opacity="0.9" filter="url(#starGlow)"/>
    <circle cx="500" cy="1350" r="2.5" opacity="0.85" filter="url(#starGlow)"/>
    <circle cx="900" cy="1550" r="2" opacity="0.95" filter="url(#starGlow)"/>
    <circle cx="1300" cy="1400" r="2.5" opacity="0.9" filter="url(#starGlow)"/>
    <circle cx="1700" cy="1500" r="2" opacity="0.85" filter="url(#starGlow)"/>
    <circle cx="2100" cy="1350" r="2.5" opacity="0.9" filter="url(#starGlow)"/>
    <circle cx="2500" cy="1550" r="2" opacity="0.95" filter="url(#starGlow)"/>
    <circle cx="2900" cy="1400" r="2.5" opacity="0.85" filter="url(#starGlow)"/>
    <circle cx="3300" cy="1500" r="2" opacity="0.9" filter="url(#starGlow)"/>
    <circle cx="3700" cy="1350" r="2.5" opacity="0.95" filter="url(#starGlow)"/>
    
    <circle cx="200" cy="1900" r="2.5" opacity="0.85" filter="url(#starGlow)"/>
    <circle cx="600" cy="1750" r="2" opacity="0.9" filter="url(#starGlow)"/>
    <circle cx="1000" cy="1950" r="2.5" opacity="0.95" filter="url(#starGlow)"/>
    <circle cx="1400" cy="1800" r="2" opacity="0.85" filter="url(#starGlow)"/>
    <circle cx="1800" cy="1900" r="2.5" opacity="0.9" filter="url(#starGlow)"/>
    <circle cx="2200" cy="1750" r="2" opacity="0.95" filter="url(#starGlow)"/>
    <circle cx="2600" cy="2000" r="2.5" opacity="0.85" filter="url(#starGlow)"/>
    <circle cx="3000" cy="1850" r="2" opacity="0.9" filter="url(#starGlow)"/>
    <circle cx="3400" cy="2050" r="2.5" opacity="0.95" filter="url(#starGlow)"/>
    <circle cx="3750" cy="1800" r="2" opacity="0.85" filter="url(#starGlow)"/>
  </g>
  
  <!-- Dim background stars -->
  <g fill="#FFFFFF" opacity="0.3">
    <circle cx="50" cy="50" r="1"/>
    <circle cx="180" cy="250" r="1"/>
    <circle cx="320" cy="180" r="1"/>
    <circle cx="450" cy="450" r="1"/>
    <circle cx="580" cy="120" r="1"/>
    <circle cx="720" cy="380" r="1"/>
    <circle cx="850" cy="280" r="1"/>
    <circle cx="980" cy="420" r="1"/>
    <circle cx="1120" cy="80" r="1"/>
    <circle cx="1250" cy="320" r="1"/>
    <circle cx="1380" cy="180" r="1"/>
    <circle cx="1520" cy="480" r="1"/>
    <circle cx="1650" cy="350" r="1"/>
    <circle cx="1780" cy="120" r="1"/>
    <circle cx="1920" cy="450" r="1"/>
    <circle cx="2050" cy="280" r="1"/>
    <circle cx="2180" cy="180" r="1"/>
    <circle cx="2320" cy="420" r="1"/>
    <circle cx="2450" cy="320" r="1"/>
    <circle cx="2580" cy="80" r="1"/>
    <circle cx="2720" cy="380" r="1"/>
    <circle cx="2850" cy="180" r="1"/>
    <circle cx="2980" cy="450" r="1"/>
    <circle cx="3120" cy="280" r="1"/>
    <circle cx="3250" cy="120" r="1"/>
    <circle cx="3380" cy="380" r="1"/>
    <circle cx="3520" cy="220" r="1"/>
    <circle cx="3650" cy="480" r="1"/>
    <circle cx="3780" cy="150" r="1"/>
    
    <!-- More stars scattered -->
    <circle cx="100" cy="680" r="1"/>
    <circle cx="280" cy="820" r="1"/>
    <circle cx="420" cy="950" r="1"/>
    <circle cx="560" cy="1080" r="1"/>
    <circle cx="700" cy="1220" r="1"/>
    <circle cx="840" cy="1350" r="1"/>
    <circle cx="980" cy="1480" r="1"/>
    <circle cx="1120" cy="1620" r="1"/>
    <circle cx="1260" cy="1750" r="1"/>
    <circle cx="1400" cy="1880" r="1"/>
    <circle cx="1540" cy="2020" r="1"/>
    <circle cx="1680" cy="680" r="1"/>
    <circle cx="1820" cy="820" r="1"/>
    <circle cx="1960" cy="950" r="1"/>
    <circle cx="2100" cy="1080" r="1"/>
    <circle cx="2240" cy="1220" r="1"/>
    <circle cx="2380" cy="1350" r="1"/>
    <circle cx="2520" cy="1480" r="1"/>
    <circle cx="2660" cy="1620" r="1"/>
    <circle cx="2800" cy="1750" r="1"/>
    <circle cx="2940" cy="1880" r="1"/>
    <circle cx="3080" cy="2020" r="1"/>
    <circle cx="3220" cy="680" r="1"/>
    <circle cx="3360" cy="820" r="1"/>
    <circle cx="3500" cy="950" r="1"/>
    <circle cx="3640" cy="1080" r="1"/>
    <circle cx="3780" cy="1220" r="1"/>
  </g>
  
  <!-- Colored accent stars -->
  <g>
    <circle cx="800" cy="500" r="3" fill="#6C8CFF" opacity="0.6" filter="url(#starGlow)"/>
    <circle cx="2400" cy="300" r="2.5" fill="#7AE7C7" opacity="0.5" filter="url(#starGlow)"/>
    <circle cx="3200" cy="800" r="3" fill="#6C8CFF" opacity="0.55" filter="url(#starGlow)"/>
    <circle cx="1500" cy="1200" r="2.5" fill="#9F7AEA" opacity="0.45" filter="url(#starGlow)"/>
    <circle cx="2800" cy="1600" r="3" fill="#7AE7C7" opacity="0.5" filter="url(#starGlow)"/>
    <circle cx="400" cy="1400" r="2.5" fill="#6C8CFF" opacity="0.6" filter="url(#starGlow)"/>
  </g>
</svg>
